<mxfile host="www.draw.io" modified="2020-01-20T08:16:47.343Z" agent="Mozilla/5.0 (Windows NT 10.0; Win64; x64) AppleWebKit/537.36 (KHTML, like Gecko) Chrome/79.0.3945.117 Safari/537.36" etag="nmDYXRO0DbbniWXADCfg" version="12.5.5" type="github">
  <diagram id="fd4u7w1VPoyCgVFl4gd3" name="Page-1">
    <mxGraphModel dx="868" dy="401" grid="1" gridSize="10" guides="1" tooltips="1" connect="1" arrows="1" fold="1" page="1" pageScale="1" pageWidth="827" pageHeight="1169" math="0" shadow="0">
      <root>
        <mxCell id="0"/>
        <mxCell id="1" parent="0"/>
        <mxCell id="exU64ttwzKMQG6teBSXQ-4" value="" style="edgeStyle=orthogonalEdgeStyle;rounded=0;orthogonalLoop=1;jettySize=auto;html=1;" edge="1" parent="1" source="exU64ttwzKMQG6teBSXQ-2" target="exU64ttwzKMQG6teBSXQ-3">
          <mxGeometry relative="1" as="geometry"/>
        </mxCell>
        <mxCell id="exU64ttwzKMQG6teBSXQ-13" value="" style="edgeStyle=orthogonalEdgeStyle;rounded=0;orthogonalLoop=1;jettySize=auto;html=1;" edge="1" parent="1" source="exU64ttwzKMQG6teBSXQ-2" target="exU64ttwzKMQG6teBSXQ-12">
          <mxGeometry relative="1" as="geometry"/>
        </mxCell>
        <mxCell id="exU64ttwzKMQG6teBSXQ-2" value="&lt;b&gt;Company&lt;/b&gt;" style="ellipse;whiteSpace=wrap;html=1;aspect=fixed;fillColor=#f8cecc;strokeColor=#b85450;" vertex="1" parent="1">
          <mxGeometry x="290" y="130" width="80" height="80" as="geometry"/>
        </mxCell>
        <mxCell id="exU64ttwzKMQG6teBSXQ-12" value="&lt;b&gt;Employee&lt;/b&gt;" style="ellipse;whiteSpace=wrap;html=1;aspect=fixed;fillColor=#d5e8d4;strokeColor=#82b366;" vertex="1" parent="1">
          <mxGeometry x="50" y="130" width="80" height="80" as="geometry"/>
        </mxCell>
        <mxCell id="exU64ttwzKMQG6teBSXQ-3" value="&lt;b&gt;City&lt;/b&gt;" style="ellipse;whiteSpace=wrap;html=1;aspect=fixed;fillColor=#dae8fc;strokeColor=#6c8ebf;" vertex="1" parent="1">
          <mxGeometry x="530" y="130" width="80" height="80" as="geometry"/>
        </mxCell>
        <mxCell id="exU64ttwzKMQG6teBSXQ-14" value="&lt;b&gt;:HAS_CEO&lt;br&gt;start date: &lt;/b&gt;2008-01-20" style="text;html=1;align=center;verticalAlign=middle;resizable=0;points=[];autosize=1;" vertex="1" parent="1">
          <mxGeometry x="140" y="130" width="140" height="30" as="geometry"/>
        </mxCell>
        <mxCell id="exU64ttwzKMQG6teBSXQ-15" value="&lt;b&gt;:LOCATED_IN&lt;/b&gt;" style="text;html=1;align=center;verticalAlign=middle;resizable=0;points=[];autosize=1;" vertex="1" parent="1">
          <mxGeometry x="410" y="140" width="100" height="20" as="geometry"/>
        </mxCell>
        <mxCell id="exU64ttwzKMQG6teBSXQ-16" value="&lt;div style=&quot;text-align: left&quot;&gt;&lt;b&gt;name: &lt;/b&gt;&lt;span&gt;Amy Peters&lt;/span&gt;&lt;/div&gt;&lt;b&gt;&lt;div style=&quot;text-align: left&quot;&gt;&lt;b&gt;date_of_birth: &lt;/b&gt;&lt;span style=&quot;font-weight: normal&quot;&gt;1984-03-01&lt;/span&gt;&lt;/div&gt;&lt;/b&gt;&lt;b&gt;&lt;div style=&quot;text-align: left&quot;&gt;&lt;b&gt;employee_ID:&lt;/b&gt;&lt;span style=&quot;font-weight: normal&quot;&gt;&amp;nbsp;1&lt;/span&gt;&lt;/div&gt;&lt;/b&gt;" style="text;html=1;align=center;verticalAlign=middle;resizable=0;points=[];autosize=1;" vertex="1" parent="1">
          <mxGeometry x="30" y="210" width="160" height="50" as="geometry"/>
        </mxCell>
        <mxCell id="exU64ttwzKMQG6teBSXQ-17" value="" style="shape=curlyBracket;whiteSpace=wrap;html=1;rounded=1;rotation=-90;fillColor=none;strokeColor=#FF0000;gradientColor=none;strokeWidth=2;" vertex="1" parent="1">
          <mxGeometry x="90" y="210" width="20" height="120" as="geometry"/>
        </mxCell>
        <mxCell id="exU64ttwzKMQG6teBSXQ-18" value="" style="shape=curlyBracket;whiteSpace=wrap;html=1;rounded=1;rotation=90;fillColor=none;strokeColor=#FF0000;gradientColor=none;strokeWidth=2;" vertex="1" parent="1">
          <mxGeometry x="200" y="60" width="20" height="120" as="geometry"/>
        </mxCell>
        <mxCell id="exU64ttwzKMQG6teBSXQ-19" value="" style="shape=curlyBracket;whiteSpace=wrap;html=1;rounded=1;rotation=90;fillColor=none;strokeColor=#FF0000;gradientColor=none;strokeWidth=2;" vertex="1" parent="1">
          <mxGeometry x="450" y="60" width="20" height="120" as="geometry"/>
        </mxCell>
        <mxCell id="exU64ttwzKMQG6teBSXQ-21" value="" style="shape=curlyBracket;whiteSpace=wrap;html=1;rounded=1;rotation=-90;fillColor=none;strokeColor=#FF0000;gradientColor=none;strokeWidth=2;" vertex="1" parent="1">
          <mxGeometry x="450" y="130" width="20" height="120" as="geometry"/>
        </mxCell>
        <mxCell id="exU64ttwzKMQG6teBSXQ-22" value="" style="shape=curlyBracket;whiteSpace=wrap;html=1;rounded=1;rotation=90;fillColor=none;strokeColor=#FF0000;gradientColor=none;strokeWidth=2;" vertex="1" parent="1">
          <mxGeometry x="560" y="85" width="20" height="70" as="geometry"/>
        </mxCell>
        <mxCell id="exU64ttwzKMQG6teBSXQ-25" value="Relasi dapat memiliki properti (nama/&lt;i&gt;value)&lt;/i&gt;" style="text;html=1;strokeColor=none;fillColor=none;align=center;verticalAlign=middle;whiteSpace=wrap;rounded=0;fontColor=#FF0000;fontStyle=1" vertex="1" parent="1">
          <mxGeometry x="130" y="70" width="160" height="50" as="geometry"/>
        </mxCell>
        <mxCell id="exU64ttwzKMQG6teBSXQ-26" value="Relasi memiliki arah" style="text;html=1;strokeColor=none;fillColor=none;align=center;verticalAlign=middle;whiteSpace=wrap;rounded=0;fontColor=#FF0000;fontStyle=1" vertex="1" parent="1">
          <mxGeometry x="415" y="70" width="90" height="50" as="geometry"/>
        </mxCell>
        <mxCell id="exU64ttwzKMQG6teBSXQ-27" value="Relasi menghubungkan node dan merepresentasikan aksi (verbs/kata kerja)" style="text;html=1;strokeColor=none;fillColor=none;align=center;verticalAlign=middle;whiteSpace=wrap;rounded=0;fontColor=#FF0000;fontStyle=1" vertex="1" parent="1">
          <mxGeometry x="370" y="210" width="180" height="30" as="geometry"/>
        </mxCell>
        <mxCell id="exU64ttwzKMQG6teBSXQ-29" value="node merepresentasikan objek (noun)" style="text;html=1;strokeColor=none;fillColor=none;align=center;verticalAlign=middle;whiteSpace=wrap;rounded=0;fontColor=#FF0000;fontStyle=1" vertex="1" parent="1">
          <mxGeometry x="505" y="60" width="130" height="60" as="geometry"/>
        </mxCell>
        <mxCell id="exU64ttwzKMQG6teBSXQ-31" value="Node dapat memiliki properti (nama/&lt;i&gt;value)&lt;/i&gt;" style="text;html=1;strokeColor=none;fillColor=none;align=center;verticalAlign=middle;whiteSpace=wrap;rounded=0;fontColor=#FF0000;fontStyle=1" vertex="1" parent="1">
          <mxGeometry x="20" y="270" width="160" height="50" as="geometry"/>
        </mxCell>
      </root>
    </mxGraphModel>
  </diagram>
</mxfile>
